# xmcd
#
# Track frame offsets:
# 150
# 22990
# 35873
# 50523
# 67436
# 84077
# 101564
# 113113
# 116484
# 128897
# 145305
# 164028
# 185596
# 199743
# 219517
# 232167
# 245746
#
# Disc length: 3518 seconds
#
#
# Revision: 0
# Processed by: cddbd v1.5.2PL0 Copyright (c) Steve Scherf et al.
# Submitted via: FreeRIP 2.951 
#
DISCID=060dbc11
DTITLE=Ghostface Killah - More Fish
DYEAR=1900
DGENRE=Hip-Hop
TTITLE0=Ghost Is Back
TTITLE1=Miguel Sanchez(Trife da God Sun God)
TTITLE2=Sins Guns Razors(Cappadonna Trife)
TTITLE3=Outta Town Shit
TTITLE4=Good(Trife MrMaygreen)
TTITLE5=Street Opera(Sun God)
TTITLE6=Block Rock
TTITLE7=Miss Info Celebrity drama Skit
TTITLE8=Pokerface(Shawn Wigs)
TTITLE9=Greedy Bitches(S Wigs Redman)
TTITLE10=Josephine
TTITLE11=Grew Up Hard(Solomon Childs)
TTITLE12=Blue Armor(Sheek Louch)
TTITLE13=You KNow Im No Good(Amy Winehouse)
TTITLE14=Alex Stolen Script
TTITLE15=Gotta Hold On(S wigs Eamon
TTITLE16=Like That Remix(K West NeYoBack)
EXTD=
EXTT0=
EXTT1=
EXTT2=
EXTT3=
EXTT4=
EXTT5=
EXTT6=
EXTT7=
EXTT8=
EXTT9=
EXTT10=
EXTT11=
EXTT12=
EXTT13=
EXTT14=
EXTT15=
EXTT16=
PLAYORDER=
